<svg width="45" height="45" viewBox="0 0 45 45" fill="none" xmlns="http://www.w3.org/2000/svg">
<rect width="45" height="45" rx="22.5" fill="#FF7629"/>
<g clip-path="url(#clip0_27813:40)">
<path d="M18.293 26.6768V30.5418C18.293 30.8118 18.4663 31.0509 18.723 31.1359C18.7871 31.1568 18.853 31.1668 18.918 31.1668C19.113 31.1668 19.3013 31.0751 19.4213 30.9118L21.6821 27.8351L18.293 26.6768Z" fill="white"/>
<path d="M30.7375 12.1149C30.5459 11.9791 30.2942 11.9608 30.0859 12.0699L11.3359 21.8616C11.1142 21.9774 10.9834 22.2141 11.0017 22.4633C11.0209 22.7133 11.1867 22.9266 11.4225 23.0074L16.635 24.7891L27.7359 15.2974L19.1459 25.6466L27.8817 28.6324C27.9467 28.6541 28.015 28.6658 28.0834 28.6658C28.1967 28.6658 28.3092 28.6349 28.4084 28.5749C28.5667 28.4783 28.6742 28.3158 28.7017 28.1333L30.9934 12.7166C31.0275 12.4833 30.9292 12.2516 30.7375 12.1149Z" fill="white"/>
</g>
<defs>
<clipPath id="clip0_27813:40">
<rect width="20" height="20" fill="white" transform="translate(11 12)"/>
</clipPath>
</defs>
</svg>
