<svg width="106" height="40" viewBox="0 0 106 40" fill="none" xmlns="http://www.w3.org/2000/svg">
<path d="M34.692 35.5267C34.068 35.5267 33.508 35.4307 33.012 35.2387C32.516 35.0467 32.096 34.7667 31.752 34.3987C31.408 34.0227 31.144 33.5667 30.96 33.0307C30.776 32.4947 30.684 31.8787 30.684 31.1827C30.684 30.4867 30.788 29.8707 30.996 29.3347C31.212 28.7987 31.504 28.3467 31.872 27.9787C32.24 27.6027 32.672 27.3187 33.168 27.1267C33.664 26.9347 34.196 26.8387 34.764 26.8387C35.108 26.8387 35.42 26.8667 35.7 26.9227C35.98 26.9707 36.224 27.0267 36.432 27.0907C36.64 27.1547 36.812 27.2227 36.948 27.2947C37.084 27.3667 37.18 27.4187 37.236 27.4507L36.792 28.6867C36.6 28.5667 36.324 28.4547 35.964 28.3507C35.612 28.2387 35.228 28.1827 34.812 28.1827C34.452 28.1827 34.116 28.2467 33.804 28.3747C33.492 28.4947 33.22 28.6787 32.988 28.9267C32.764 29.1747 32.588 29.4867 32.46 29.8627C32.332 30.2387 32.268 30.6747 32.268 31.1707C32.268 31.6107 32.316 32.0147 32.412 32.3827C32.516 32.7507 32.672 33.0707 32.88 33.3427C33.088 33.6067 33.352 33.8147 33.672 33.9667C33.992 34.1107 34.376 34.1827 34.824 34.1827C35.36 34.1827 35.796 34.1307 36.132 34.0267C36.468 33.9147 36.728 33.8107 36.912 33.7147L37.32 34.9507C37.224 35.0147 37.092 35.0787 36.924 35.1427C36.764 35.2067 36.572 35.2707 36.348 35.3347C36.124 35.3907 35.872 35.4347 35.592 35.4667C35.312 35.5067 35.012 35.5267 34.692 35.5267ZM52.7534 31.1827C52.7534 31.6387 52.8094 32.0547 52.9214 32.4307C53.0334 32.7987 53.1934 33.1147 53.4014 33.3787C53.6174 33.6347 53.8774 33.8347 54.1814 33.9787C54.4854 34.1227 54.8294 34.1947 55.2134 34.1947C55.5894 34.1947 55.9294 34.1227 56.2334 33.9787C56.5374 33.8347 56.7934 33.6347 57.0014 33.3787C57.2174 33.1147 57.3814 32.7987 57.4934 32.4307C57.6054 32.0547 57.6614 31.6387 57.6614 31.1827C57.6614 30.7267 57.6054 30.3147 57.4934 29.9467C57.3814 29.5707 57.2174 29.2547 57.0014 28.9987C56.7934 28.7347 56.5374 28.5307 56.2334 28.3867C55.9294 28.2427 55.5894 28.1707 55.2134 28.1707C54.8294 28.1707 54.4854 28.2427 54.1814 28.3867C53.8774 28.5307 53.6174 28.7347 53.4014 28.9987C53.1934 29.2627 53.0334 29.5787 52.9214 29.9467C52.8094 30.3147 52.7534 30.7267 52.7534 31.1827ZM59.2454 31.1827C59.2454 31.8947 59.1374 32.5227 58.9214 33.0667C58.7134 33.6107 58.4254 34.0667 58.0574 34.4347C57.6974 34.7947 57.2734 35.0667 56.7854 35.2507C56.2974 35.4347 55.7774 35.5267 55.2254 35.5267C54.6734 35.5267 54.1494 35.4347 53.6534 35.2507C53.1654 35.0667 52.7374 34.7947 52.3694 34.4347C52.0094 34.0667 51.7214 33.6107 51.5054 33.0667C51.2894 32.5227 51.1814 31.8947 51.1814 31.1827C51.1814 30.4707 51.2894 29.8467 51.5054 29.3107C51.7214 28.7667 52.0134 28.3107 52.3814 27.9427C52.7574 27.5747 53.1894 27.2987 53.6774 27.1147C54.1654 26.9307 54.6814 26.8387 55.2254 26.8387C55.7694 26.8387 56.2854 26.9307 56.7734 27.1147C57.2614 27.2987 57.6854 27.5747 58.0454 27.9427C58.4134 28.3107 58.7054 28.7667 58.9214 29.3107C59.1374 29.8467 59.2454 30.4707 59.2454 31.1827ZM75.2201 31.1827C75.2201 31.6387 75.2761 32.0547 75.3881 32.4307C75.5001 32.7987 75.6601 33.1147 75.8681 33.3787C76.0841 33.6347 76.3441 33.8347 76.6481 33.9787C76.9521 34.1227 77.2961 34.1947 77.6801 34.1947C78.0561 34.1947 78.3961 34.1227 78.7001 33.9787C79.0041 33.8347 79.2601 33.6347 79.4681 33.3787C79.6841 33.1147 79.8481 32.7987 79.9601 32.4307C80.0721 32.0547 80.1281 31.6387 80.1281 31.1827C80.1281 30.7267 80.0721 30.3147 79.9601 29.9467C79.8481 29.5707 79.6841 29.2547 79.4681 28.9987C79.2601 28.7347 79.0041 28.5307 78.7001 28.3867C78.3961 28.2427 78.0561 28.1707 77.6801 28.1707C77.2961 28.1707 76.9521 28.2427 76.6481 28.3867C76.3441 28.5307 76.0841 28.7347 75.8681 28.9987C75.6601 29.2627 75.5001 29.5787 75.3881 29.9467C75.2761 30.3147 75.2201 30.7267 75.2201 31.1827ZM81.7121 31.1827C81.7121 31.8947 81.6041 32.5227 81.3881 33.0667C81.1801 33.6107 80.8921 34.0667 80.5241 34.4347C80.1641 34.7947 79.7401 35.0667 79.2521 35.2507C78.7641 35.4347 78.2441 35.5267 77.6921 35.5267C77.1401 35.5267 76.6161 35.4347 76.1201 35.2507C75.6321 35.0667 75.2041 34.7947 74.8361 34.4347C74.4761 34.0667 74.1881 33.6107 73.9721 33.0667C73.7561 32.5227 73.6481 31.8947 73.6481 31.1827C73.6481 30.4707 73.7561 29.8467 73.9721 29.3107C74.1881 28.7667 74.4801 28.3107 74.8481 27.9427C75.2241 27.5747 75.6561 27.2987 76.1441 27.1147C76.6321 26.9307 77.1481 26.8387 77.6921 26.8387C78.2361 26.8387 78.7521 26.9307 79.2401 27.1147C79.7281 27.2987 80.1521 27.5747 80.5121 27.9427C80.8801 28.3107 81.1721 28.7667 81.3881 29.3107C81.6041 29.8467 81.7121 30.4707 81.7121 31.1827ZM101.419 35.3467C101.211 35.0267 100.971 34.6907 100.699 34.3387C100.427 33.9867 100.139 33.6467 99.8348 33.3187C99.5388 32.9907 99.2308 32.6787 98.9108 32.3827C98.5908 32.0867 98.2748 31.8307 97.9628 31.6147V35.3467H96.4508V27.0307H97.9628V30.4627C98.2268 30.1987 98.5028 29.9187 98.7908 29.6227C99.0788 29.3187 99.3628 29.0147 99.6428 28.7107C99.9308 28.3987 100.203 28.0987 100.459 27.8107C100.715 27.5227 100.947 27.2627 101.155 27.0307H102.967C102.703 27.3347 102.423 27.6507 102.127 27.9787C101.831 28.3067 101.527 28.6387 101.215 28.9747C100.903 29.3027 100.587 29.6307 100.267 29.9587C99.9548 30.2867 99.6468 30.5987 99.3428 30.8947C99.6788 31.1507 100.019 31.4507 100.363 31.7947C100.715 32.1307 101.059 32.4947 101.395 32.8867C101.731 33.2707 102.051 33.6747 102.355 34.0987C102.667 34.5147 102.951 34.9307 103.207 35.3467H101.419Z" fill="white"/>
<path d="M35.38 21.62C35.82 21.62 36.18 21.5867 36.46 21.52C36.7533 21.44 36.9867 21.34 37.16 21.22C37.3333 21.0867 37.4533 20.9333 37.52 20.76C37.5867 20.5867 37.62 20.3933 37.62 20.18C37.62 19.7267 37.4067 19.3533 36.98 19.06C36.5533 18.7533 35.82 18.4267 34.78 18.08C34.3267 17.92 33.8733 17.74 33.42 17.54C32.9667 17.3267 32.56 17.0667 32.2 16.76C31.84 16.44 31.5467 16.06 31.32 15.62C31.0933 15.1667 30.98 14.62 30.98 13.98C30.98 13.34 31.1 12.7667 31.34 12.26C31.58 11.74 31.92 11.3 32.36 10.94C32.8 10.58 33.3333 10.3067 33.96 10.12C34.5867 9.92 35.2933 9.82 36.08 9.82C37.0133 9.82 37.82 9.92 38.5 10.12C39.18 10.32 39.74 10.54 40.18 10.78L39.28 13.24C38.8933 13.04 38.46 12.8667 37.98 12.72C37.5133 12.56 36.9467 12.48 36.28 12.48C35.5333 12.48 34.9933 12.5867 34.66 12.8C34.34 13 34.18 13.3133 34.18 13.74C34.18 13.9933 34.24 14.2067 34.36 14.38C34.48 14.5533 34.6467 14.7133 34.86 14.86C35.0867 14.9933 35.34 15.12 35.62 15.24C35.9133 15.3467 36.2333 15.46 36.58 15.58C37.3 15.8467 37.9267 16.1133 38.46 16.38C38.9933 16.6333 39.4333 16.9333 39.78 17.28C40.14 17.6267 40.4067 18.0333 40.58 18.5C40.7533 18.9667 40.84 19.5333 40.84 20.2C40.84 21.4933 40.3867 22.5 39.48 23.22C38.5733 23.9267 37.2067 24.28 35.38 24.28C34.7667 24.28 34.2133 24.24 33.72 24.16C33.2267 24.0933 32.7867 24.0067 32.4 23.9C32.0267 23.7933 31.7 23.68 31.42 23.56C31.1533 23.44 30.9267 23.3267 30.74 23.22L31.62 20.74C32.0333 20.9667 32.54 21.1733 33.14 21.36C33.7533 21.5333 34.5 21.62 35.38 21.62ZM51.6006 10.14H54.7206V24H51.6006V18.12H46.3606V24H43.2406V10.14H46.3606V15.44H51.6006V10.14ZM60.5481 17.06C60.5481 17.74 60.6281 18.3533 60.7881 18.9C60.9615 19.4467 61.2015 19.92 61.5081 20.32C61.8281 20.7067 62.2148 21.0067 62.6681 21.22C63.1215 21.4333 63.6415 21.54 64.2281 21.54C64.8015 21.54 65.3148 21.4333 65.7681 21.22C66.2348 21.0067 66.6215 20.7067 66.9281 20.32C67.2481 19.92 67.4881 19.4467 67.6481 18.9C67.8215 18.3533 67.9081 17.74 67.9081 17.06C67.9081 16.38 67.8215 15.7667 67.6481 15.22C67.4881 14.66 67.2481 14.1867 66.9281 13.8C66.6215 13.4 66.2348 13.0933 65.7681 12.88C65.3148 12.6667 64.8015 12.56 64.2281 12.56C63.6415 12.56 63.1215 12.6733 62.6681 12.9C62.2148 13.1133 61.8281 13.42 61.5081 13.82C61.2015 14.2067 60.9615 14.68 60.7881 15.24C60.6281 15.7867 60.5481 16.3933 60.5481 17.06ZM71.1281 17.06C71.1281 18.2467 70.9481 19.2933 70.5881 20.2C70.2415 21.0933 69.7615 21.8467 69.1481 22.46C68.5348 23.06 67.8015 23.5133 66.9481 23.82C66.1081 24.1267 65.2015 24.28 64.2281 24.28C63.2815 24.28 62.3881 24.1267 61.5481 23.82C60.7081 23.5133 59.9748 23.06 59.3481 22.46C58.7215 21.8467 58.2281 21.0933 57.8681 20.2C57.5081 19.2933 57.3281 18.2467 57.3281 17.06C57.3281 15.8733 57.5148 14.8333 57.8881 13.94C58.2615 13.0333 58.7615 12.2733 59.3881 11.66C60.0281 11.0467 60.7615 10.5867 61.5881 10.28C62.4281 9.97333 63.3081 9.82 64.2281 9.82C65.1748 9.82 66.0681 9.97333 66.9081 10.28C67.7481 10.5867 68.4815 11.0467 69.1081 11.66C69.7348 12.2733 70.2281 13.0333 70.5881 13.94C70.9481 14.8333 71.1281 15.8733 71.1281 17.06ZM77.8889 9.98C79.9556 9.98 81.5422 10.3467 82.6489 11.08C83.7556 11.8 84.3089 12.9867 84.3089 14.64C84.3089 16.3067 83.7489 17.5133 82.6289 18.26C81.5089 18.9933 79.9089 19.36 77.8289 19.36H76.8489V24H73.7289V10.34C74.4089 10.2067 75.1289 10.1133 75.8889 10.06C76.6489 10.0067 77.3156 9.98 77.8889 9.98ZM78.0889 12.64C77.8622 12.64 77.6356 12.6467 77.4089 12.66C77.1956 12.6733 77.0089 12.6867 76.8489 12.7V16.7H77.8289C78.9089 16.7 79.7222 16.5533 80.2689 16.26C80.8156 15.9667 81.0889 15.42 81.0889 14.62C81.0889 14.2333 81.0156 13.9133 80.8689 13.66C80.7356 13.4067 80.5356 13.2067 80.2689 13.06C80.0156 12.9 79.7022 12.7933 79.3289 12.74C78.9556 12.6733 78.5422 12.64 78.0889 12.64ZM90.5047 20.32C90.5047 19.8133 90.578 19.3533 90.7247 18.94C90.8714 18.5133 91.0647 18.1333 91.3047 17.8C91.558 17.4533 91.8447 17.1533 92.1647 16.9C92.498 16.6333 92.8447 16.4 93.2047 16.2C92.8847 15.8133 92.598 15.4 92.3447 14.96C92.0914 14.5067 91.9647 14.0133 91.9647 13.48C91.9647 12.3067 92.318 11.4067 93.0247 10.78C93.7314 10.14 94.7047 9.82 95.9447 9.82C96.5714 9.82 97.118 9.90667 97.5847 10.08C98.0514 10.24 98.438 10.4667 98.7447 10.76C99.0647 11.04 99.3047 11.3733 99.4647 11.76C99.6247 12.1333 99.7047 12.54 99.7047 12.98C99.7047 13.7933 99.4714 14.52 99.0047 15.16C98.5514 15.7867 97.9714 16.3133 97.2647 16.74L99.5047 18.98C99.6247 18.7133 99.738 18.38 99.8447 17.98C99.9647 17.5667 100.038 17.2067 100.065 16.9L102.545 17.22C102.518 17.4733 102.471 17.7533 102.405 18.06C102.338 18.3533 102.251 18.6533 102.145 18.96C102.051 19.2667 101.938 19.5733 101.805 19.88C101.685 20.1867 101.551 20.4667 101.405 20.72C101.831 21.2 102.245 21.7267 102.645 22.3C103.058 22.86 103.411 23.4267 103.705 24H100.645C100.538 23.8267 100.391 23.6133 100.205 23.36C100.018 23.0933 99.8314 22.8667 99.6447 22.68C99.1114 23.1067 98.4914 23.4667 97.7847 23.76C97.078 24.04 96.2847 24.18 95.4047 24.18C94.4714 24.18 93.6914 24.0667 93.0647 23.84C92.438 23.6 91.9314 23.3 91.5447 22.94C91.1714 22.5667 90.9047 22.1533 90.7447 21.7C90.5847 21.2333 90.5047 20.7733 90.5047 20.32ZM93.2847 20.02C93.2847 20.22 93.3247 20.4267 93.4047 20.64C93.4847 20.8533 93.6114 21.0533 93.7847 21.24C93.9714 21.4133 94.2047 21.56 94.4847 21.68C94.7647 21.7867 95.1047 21.84 95.5047 21.84C96.0647 21.84 96.5514 21.7667 96.9647 21.62C97.3914 21.4733 97.7447 21.28 98.0247 21.04L94.8247 17.82C94.638 17.9133 94.4514 18.0267 94.2647 18.16C94.0914 18.2933 93.9314 18.4533 93.7847 18.64C93.638 18.8133 93.518 19.0133 93.4247 19.24C93.3314 19.4667 93.2847 19.7267 93.2847 20.02ZM97.1647 13.12C97.1647 12.8133 97.0647 12.54 96.8647 12.3C96.6647 12.06 96.3314 11.94 95.8647 11.94C95.438 11.94 95.1047 12.0733 94.8647 12.34C94.638 12.5933 94.5247 12.9267 94.5247 13.34C94.5247 13.6867 94.6247 14.0267 94.8247 14.36C95.0247 14.68 95.2847 14.9867 95.6047 15.28C96.0314 15.04 96.398 14.7533 96.7047 14.42C97.0114 14.0867 97.1647 13.6533 97.1647 13.12Z" fill="white"/>
<path d="M8 14V8C8 4.685 10.6925 2 14 2C17.315 2 20 4.6925 20 8V14M2 11H26V35H2V11Z" stroke="white" stroke-width="2" stroke-linecap="round"/>
<path d="M20.1967 28.7196V22.4102H9.73633V28.7196C9.73633 29.3471 9.97249 29.9489 10.3929 30.3926C10.8132 30.8363 11.3834 31.0856 11.9778 31.0856H17.9552C18.5497 31.0856 19.1198 30.8363 19.5402 30.3926C19.9605 29.9489 20.1967 29.3471 20.1967 28.7196Z" stroke="white" stroke-width="2" stroke-linecap="round" stroke-linejoin="round"/>
<path d="M6 22.4102H20.9434" stroke="white" stroke-width="2" stroke-linecap="round" stroke-linejoin="round"/>
<path d="M11.2285 17.6768V19.2541" stroke="white" stroke-width="2" stroke-linecap="round" stroke-linejoin="round"/>
<path d="M14.9648 16.8887V19.2547" stroke="white" stroke-width="2" stroke-linecap="round" stroke-linejoin="round"/>
<path d="M18.7012 17.6768V19.2541" stroke="white" stroke-width="2" stroke-linecap="round" stroke-linejoin="round"/>
</svg>
